<svg width="97" height="46" viewBox="0 0 97 46" fill="none" xmlns="http://www.w3.org/2000/svg">
<g id="Group">
<g id="Group_2">
<path id="Vector" d="M27.8584 36.1814C28.2744 36.1814 28.6377 36.1814 29.0678 36.1814C29.0233 36.501 28.9916 36.8064 28.9342 37.1098C28.8756 37.4173 28.7924 37.7207 28.7197 38.0262C28.7783 38.0554 28.8369 38.0836 28.8955 38.1129C29.1592 37.6955 29.4159 37.2752 29.6877 36.8619C29.8436 36.626 29.9643 36.3235 30.2057 36.1905C30.6862 35.9254 31.2488 36.2086 31.3765 36.7116C31.4808 37.1219 31.591 37.5312 31.6976 37.9405C31.7632 37.9556 31.83 37.9707 31.8957 37.9869C32.0222 37.7137 32.1675 37.4465 32.2707 37.1673C32.3902 36.8467 32.4734 36.5161 32.5742 36.1834C32.975 36.1834 33.3383 36.1834 33.7098 36.1834C33.7192 36.2741 33.745 36.3377 33.7297 36.3941C33.4754 37.4082 33.2164 38.4213 32.9457 39.4879C32.3785 39.4879 31.8324 39.5252 31.2991 39.4677C31.1187 39.4486 30.8866 39.2117 30.8269 39.0363C30.6757 38.5947 30.6089 38.132 30.4729 37.5231C30.1108 38.1088 29.8085 38.5423 29.5717 39.001C29.3725 39.3851 29.1018 39.5474 28.6014 39.498C28.1654 39.4546 27.7189 39.4889 27.1775 39.4889C27.4095 38.3649 27.6275 37.3084 27.8584 36.1814Z" fill="url(#paint0_linear_1601_13571)"/>
<path id="Vector_2" d="M65.2602 38.0714C65.4395 37.4484 65.6176 36.8244 65.7981 36.1943C66.1684 36.1943 66.5071 36.1943 66.9243 36.1943C66.6724 37.2901 66.4286 38.3446 66.1825 39.4121C66.0102 39.4323 65.8661 39.4625 65.7219 39.4645C64.0672 39.4887 64.0777 39.4867 63.9641 38.0391C63.95 37.8526 63.759 37.6762 63.65 37.4958C63.5855 37.521 63.5199 37.5462 63.4554 37.5724C63.3148 38.1893 63.1754 38.8062 63.0312 39.4373C62.5999 39.4373 62.212 39.4373 61.7632 39.4373C62.0691 38.3446 62.3632 37.2941 62.6667 36.2115C62.7746 36.1974 62.8906 36.1712 63.0078 36.1681C64.6133 36.1218 64.6086 36.1238 64.8746 37.5109C64.9121 37.7064 65.0247 37.8919 65.102 38.0825C65.1547 38.0794 65.2075 38.0754 65.2602 38.0714Z" fill="url(#paint1_linear_1601_13571)"/>
<path id="Vector_3" d="M40.1342 38.4143C39.9947 38.879 39.915 39.1441 39.8236 39.4475C39.4732 39.4475 39.1146 39.4475 38.6658 39.4475C38.9224 38.3376 39.1697 37.2651 39.4263 36.1582C40.6276 36.1582 41.7901 36.1461 42.9527 36.1632C43.5375 36.1723 43.8574 36.4717 43.6922 36.9616C43.4941 37.5503 43.7261 38.3528 42.682 38.5947C42.7921 38.8739 42.8999 39.1441 43.0077 39.4183C42.2659 39.5947 41.8323 39.4768 41.4948 38.8518C41.3565 38.5967 40.6545 38.5685 40.1342 38.4143ZM42.4452 37.0503C40.7952 36.7671 40.3826 36.8891 40.3311 37.6784C40.9897 37.6784 41.646 37.6784 42.3409 37.6784C42.3773 37.4637 42.4066 37.2812 42.4452 37.0503Z" fill="url(#paint2_linear_1601_13571)"/>
<path id="Vector_4" d="M79.88 38.5682C80.0124 38.8383 80.1167 39.051 80.2187 39.2617C79.3561 39.7022 79.2413 39.7022 78.926 38.919C78.694 38.3413 78.2065 38.5369 77.7764 38.4946C77.3182 38.4502 77.2736 38.7143 77.2045 39.0057C77.085 39.5127 77.0568 39.5127 75.906 39.3958C75.9552 39.1377 75.9927 38.8797 76.056 38.6276C76.2025 38.0409 76.424 37.4623 76.4978 36.8696C76.5705 36.2929 76.8869 36.1327 77.5022 36.1569C78.2686 36.1871 79.0386 36.1639 79.8062 36.17C80.8738 36.179 81.0086 36.2859 80.8984 37.2305C80.8363 37.7819 80.7648 38.3807 79.88 38.5682ZM77.4975 37.7395C78.0858 37.7395 78.5487 37.7446 79.0116 37.7385C79.764 37.7284 79.8144 37.6669 79.6503 36.9573C79.0233 36.9573 78.3917 36.9573 77.7248 36.9573C77.6557 37.1972 77.5912 37.4159 77.4975 37.7395Z" fill="url(#paint3_linear_1601_13571)"/>
<path id="Vector_5" d="M13.6323 37.2327C12.7112 37.1228 11.8334 37.0179 10.9252 36.9091C11.0728 37.5441 11.2697 37.6369 12.0807 37.522C13.0487 37.3849 13.4108 37.5139 13.4589 38.0139C13.5479 38.9504 13.0827 39.4776 12.1451 39.4907C11.5498 39.4988 10.9545 39.5089 10.3603 39.4877C10.1212 39.4796 9.80831 39.4514 9.67002 39.3214C9.49306 39.156 9.41103 38.8808 9.3958 38.648C9.39111 38.5825 9.76964 38.4262 9.96418 38.4363C10.5408 38.4665 11.1127 38.5784 11.6893 38.6117C11.8393 38.6208 12.0022 38.4575 12.1592 38.3738C12.0045 38.3103 11.8533 38.2044 11.6928 38.1933C11.299 38.1671 10.8982 38.2054 10.5044 38.1802C9.83878 38.1379 9.59151 37.8536 9.68174 37.281C9.8423 36.2578 9.98527 36.151 11.1912 36.152C11.7361 36.152 12.2822 36.1439 12.8272 36.155C13.6206 36.1712 13.8233 36.4181 13.6323 37.2327Z" fill="url(#paint4_linear_1601_13571)"/>
<path id="Vector_6" d="M16.4779 36.154C16.7756 36.153 17.0721 36.1519 17.3697 36.153C18.3659 36.158 18.5815 36.3586 18.4127 37.1792C18.2967 37.7427 18.101 38.2951 18.0108 38.8606C17.9358 39.3284 17.6053 39.4725 17.1506 39.4826C16.3584 39.5008 15.5661 39.4927 14.7739 39.4856C14.1516 39.4796 13.8493 39.2014 13.9547 38.6691C14.093 37.9796 14.2278 37.285 14.4575 36.6157C14.5243 36.4211 14.8852 36.2175 15.1466 36.1731C15.5743 36.1015 16.0326 36.155 16.4779 36.154ZM17.1916 37.034C15.3329 36.9322 15.5638 36.6499 15.2673 38.5602C17.2326 38.6772 16.7744 38.8828 17.1916 37.034Z" fill="url(#paint5_linear_1601_13571)"/>
<path id="Vector_7" d="M33.936 39.4151C34.1505 38.4967 34.3591 37.6227 34.5548 36.7477C34.6427 36.3586 34.8747 36.1469 35.3599 36.153C36.1533 36.163 36.9467 36.1489 37.7401 36.16C38.3577 36.1681 38.5757 36.4796 38.4679 36.9675C38.2862 37.782 38.0811 38.5915 37.876 39.4413C37.5139 39.4413 37.1553 39.4413 36.7311 39.4413C36.7756 39.151 36.8155 38.8909 36.867 38.5592C36.4322 38.5592 36.0396 38.5401 35.6529 38.5703C35.5193 38.5804 35.3377 38.6913 35.2837 38.7971C34.9064 39.5411 34.9158 39.5441 33.936 39.4151ZM37.1073 37.6802C37.1412 37.4544 37.1705 37.2538 37.1998 37.0582C35.8779 36.8022 35.6693 36.8848 35.6037 37.6802C36.09 37.6802 36.574 37.6802 37.1073 37.6802Z" fill="url(#paint6_linear_1601_13571)"/>
<path id="Vector_8" d="M50.4929 36.165C51.7774 36.165 53.0337 36.1499 54.2876 36.1812C54.4775 36.1862 54.7576 36.3757 54.8314 36.536C55.2041 37.3505 54.2994 38.5471 53.2938 38.5864C52.6282 38.6126 51.9602 38.5915 51.2453 38.5915C51.1422 38.8737 51.0426 39.1459 50.9383 39.4352C50.5762 39.4352 50.2164 39.4352 49.7546 39.4352C50.0031 38.3284 50.241 37.2759 50.4929 36.165ZM53.5411 36.9816C52.8063 36.9816 52.1149 36.9816 51.4446 36.9816C51.4598 37.2366 51.4727 37.4574 51.4856 37.6731C53.4485 37.8354 53.5212 37.8132 53.5411 36.9816Z" fill="url(#paint7_linear_1601_13571)"/>
<path id="Vector_9" d="M75.1479 37.4148C75.2381 38.1335 74.9499 38.4158 74.1904 38.3351C73.7791 38.2918 73.3572 38.3271 72.9365 38.4632C73.6678 38.8755 74.4623 38.6718 75.2252 38.7293C75.1924 39.5106 75.1104 39.5831 74.2397 39.5841C73.3959 39.5852 72.5521 39.5841 71.522 39.5841C71.7857 38.3966 72.0212 37.3351 72.2685 36.2202C73.4146 36.2202 74.5912 36.2202 75.7714 36.2202C75.9132 36.8765 75.878 36.9228 75.1678 36.937C74.6979 36.946 74.2233 36.9128 73.758 36.9531C73.5635 36.9702 73.3865 37.1285 73.2013 37.2232C73.2318 37.2868 73.2623 37.3513 73.2916 37.4148C73.8986 37.4148 74.5045 37.4148 75.1479 37.4148Z" fill="url(#paint8_linear_1601_13571)"/>
<path id="Vector_10" d="M85.6871 36.8014C85.4574 37.3326 84.95 37.2006 84.4672 37.1341C84.0007 37.0695 83.5355 36.9879 83.0655 36.9556C82.9683 36.9486 82.8534 37.123 82.748 37.2137C82.8651 37.2903 82.9777 37.4254 83.0995 37.4324C83.5929 37.4607 84.0957 37.4072 84.5797 37.4718C84.8012 37.501 85.0977 37.7006 85.168 37.879C85.4938 38.6996 84.8937 39.4214 83.9011 39.4466C83.3081 39.4617 82.7105 39.4778 82.121 39.4365C81.535 39.3962 81.1096 39.1794 81.3475 38.4314C81.7319 38.503 82.128 38.6038 82.5335 38.6462C82.9448 38.6895 83.3702 38.7137 83.7781 38.6663C83.9105 38.6512 84.0043 38.3841 84.2047 38.1099C83.4699 38.1099 82.9308 38.12 82.3929 38.1079C81.7178 38.0927 81.4717 37.8256 81.5702 37.246C81.7389 36.253 81.8385 36.1804 83.014 36.1784C83.4101 36.1774 83.8074 36.1976 84.2011 36.1724C84.8387 36.131 85.3871 36.2187 85.6871 36.8014Z" fill="url(#paint9_linear_1601_13571)"/>
<path id="Vector_11" d="M59.3282 36.3408C59.8602 36.2904 60.3923 36.2248 60.9255 36.1956C61.4025 36.1694 61.7189 36.372 61.6427 36.8015C61.5138 37.5353 61.3673 38.2722 61.1282 38.9829C61.0591 39.1876 60.6548 39.4224 60.3841 39.4426C59.5719 39.5011 58.7492 39.4799 57.9336 39.4527C57.3019 39.4315 57.064 39.122 57.2128 38.5878C57.2996 38.2783 57.3617 37.9628 57.432 37.6493C57.7355 36.2914 57.7343 36.2914 59.3282 36.3408ZM60.4591 37.0111C58.8793 36.8478 58.8793 36.8478 58.5031 37.9386C58.4961 37.9587 58.5008 37.9819 58.4926 38.0011C58.3742 38.2894 58.1164 38.6059 58.6496 38.7864C59.1371 38.9517 60.0208 38.7279 60.1274 38.3952C60.2669 37.9537 60.3454 37.496 60.4591 37.0111Z" fill="url(#paint10_linear_1601_13571)"/>
<path id="Vector_12" d="M44.3332 45.0746C44.4856 44.3206 44.6028 43.7369 44.7563 42.9778C44.3953 43.5585 44.1246 43.9879 43.8609 44.4194C43.4941 45.0212 43.4965 45.0222 42.6304 44.9385C42.4406 44.3417 42.246 43.7318 42.0304 43.0524C41.9026 43.5454 41.7515 43.9496 41.7011 44.3639C41.6261 44.9748 41.2792 45.1179 40.5667 44.9022C40.7624 44.121 40.8819 43.3145 41.1807 42.5605C41.4069 41.9899 42.089 42.3699 42.5566 42.3185C42.6738 42.3054 42.9082 42.5988 42.9667 42.7802C43.0535 43.0524 43.0312 43.3508 43.1343 43.7006C43.8305 42.9697 44.1691 41.7268 45.8696 42.4748C45.6973 43.2046 45.545 44.0121 45.2883 44.7954C45.245 44.9294 44.7586 44.9577 44.3332 45.0746Z" fill="url(#paint11_linear_1601_13571)"/>
<path id="Vector_13" d="M68.5357 38.6803C69.267 38.6803 69.9995 38.6803 70.7706 38.6803C70.7964 39.3002 70.5585 39.6067 69.86 39.5916C69.1662 39.5754 68.4713 39.5996 67.7775 39.5875C67.3509 39.5805 67.0943 39.4706 67.2244 39.0039C67.4822 38.0785 67.672 37.1389 67.8924 36.1934C69.0795 36.1934 70.2116 36.1934 71.3589 36.1934C71.4597 36.6924 71.2722 36.9504 70.678 36.9413C70.2069 36.9343 69.7334 36.9161 69.267 36.9555C69.0795 36.9716 68.9084 37.1278 68.7291 37.2206C68.7607 37.2932 68.7936 37.3668 68.8252 37.4393C69.4323 37.4393 70.0393 37.4393 70.6311 37.4393C70.7683 38.0623 70.4893 38.2629 69.8752 38.2186C69.5553 38.1954 69.2248 38.1863 68.9119 38.2327C68.7432 38.2579 68.6002 38.4121 68.4455 38.5089C68.4748 38.5653 68.5053 38.6228 68.5357 38.6803Z" fill="url(#paint12_linear_1601_13571)"/>
<path id="Vector_14" d="M45.4349 38.7209C45.8779 38.7209 46.3244 38.7502 46.7639 38.7149C47.6756 38.6413 47.7424 38.7058 47.3791 39.4598C46.2529 39.4598 45.1173 39.4598 43.8833 39.4598C44.14 38.351 44.3884 37.2784 44.6404 36.1907C45.8463 36.1907 47.003 36.1907 48.2265 36.1907C48.162 36.4598 48.1081 36.6826 48.0553 36.8983C47.2409 36.9518 46.4639 37.0002 45.6892 37.0667C45.667 37.0687 45.6646 37.2552 45.647 37.4114C46.2705 37.4114 46.8576 37.4114 47.4295 37.4114C47.61 38.1 47.2748 38.3016 46.5799 38.225C46.3115 38.1957 46.0256 38.1856 45.7654 38.233C45.5826 38.2663 45.4291 38.4125 45.2615 38.5082C45.3213 38.5788 45.3787 38.6504 45.4349 38.7209Z" fill="url(#paint13_linear_1601_13571)"/>
<path id="Vector_15" d="M56.765 43.7891C56.8716 43.4666 57.0381 43.149 57.072 42.8214C57.1353 42.1954 57.5338 42.1611 58.1854 42.3244C57.9826 43.1944 57.7811 44.0603 57.5713 44.9605C57.0158 44.9605 56.4861 44.9605 55.9634 44.9605C55.8169 44.5785 55.6786 44.2176 55.5392 43.8557C55.4618 43.8627 55.3833 43.8688 55.306 43.8758C55.2157 44.2135 55.1255 44.5522 55.0224 44.9393C54.7387 44.9393 54.4317 44.9393 54.093 44.9393C54.2196 44.146 54.3274 43.3416 54.4938 42.5472C54.5196 42.4242 54.802 42.268 54.979 42.2539C56.24 42.151 56.2845 42.1903 56.5259 43.2841C56.5611 43.4424 56.5916 43.6016 56.6232 43.7609C56.6701 43.77 56.7181 43.7791 56.765 43.7891Z" fill="url(#paint14_linear_1601_13571)"/>
<path id="Vector_16" d="M18.6177 39.5102C18.886 38.3459 19.131 37.2864 19.3829 36.1907C20.556 36.1907 21.7116 36.1907 22.8659 36.1907C22.9046 36.976 22.9046 36.975 22.0467 36.9709C21.6248 36.9689 21.2018 36.9498 20.7834 36.985C20.6205 36.9991 20.4705 37.1393 20.3158 37.2229C20.3451 37.2834 20.3744 37.3449 20.4037 37.4054C21.0119 37.4054 21.6213 37.4054 22.253 37.4054C22.2987 38.0233 22.0526 38.2935 21.36 38.23C20.9697 38.1947 20.5713 38.2239 20.1716 38.2239C20.0275 38.6524 19.9795 39.0979 19.724 39.4236C19.608 39.5717 19.0829 39.484 18.6177 39.5102Z" fill="url(#paint15_linear_1601_13571)"/>
<path id="Vector_17" d="M52.5239 44.9175C52.5239 44.6958 52.5239 44.5072 52.5239 44.2744C52.143 44.2744 51.7833 44.2744 51.3614 44.2744C51.352 44.8379 51.0965 45.1695 50.2539 44.8843C50.4274 44.1665 50.6031 43.4286 50.786 42.6927C50.8 42.6342 50.8539 42.5788 50.9008 42.5294C51.1668 42.2502 53.4872 42.1383 53.7357 42.4246C53.8634 42.5718 53.8986 42.8228 53.8716 43.0153C53.806 43.478 53.629 43.9316 53.5892 44.3943C53.5365 45.0083 53.1697 45.0829 52.5239 44.9175ZM51.5594 43.5002C52.6681 43.6847 52.7712 43.6443 52.8485 42.9639C52.3657 43.0647 51.6239 42.6272 51.5594 43.5002Z" fill="url(#paint16_linear_1601_13571)"/>
<path id="Vector_18" d="M38.353 44.9957C36.5553 45.0048 36.5541 45.0038 36.9279 43.525C36.9701 43.3596 36.9936 43.1913 37.0264 43.024C37.1248 42.5169 37.4002 42.2205 38.0706 42.275C38.5604 42.3153 39.0585 42.277 39.5531 42.2871C40.3371 42.3032 40.4695 42.4393 40.35 43.0895C40.3113 43.2992 40.2703 43.5078 40.221 43.7155C39.9117 45.0129 40.0816 45.0038 38.353 44.9957ZM39.3691 43.033C37.9393 42.8496 37.951 42.8254 37.8889 44.2538C39.1593 44.4373 39.1698 44.4282 39.3691 43.033Z" fill="url(#paint17_linear_1601_13571)"/>
<path id="Vector_19" d="M46.9455 44.991C46.5811 44.9758 46.3151 44.9658 45.9658 44.9506C46.1791 44.0645 46.3807 43.2218 46.5987 42.3176C47.6124 42.3176 48.6191 42.3115 49.6246 42.3246C49.7547 42.3266 49.9972 42.4264 49.9949 42.4738C49.9726 42.9264 49.9715 43.3932 49.825 43.8206C49.764 43.999 49.3808 44.1553 49.1136 44.2057C48.7597 44.2732 48.3706 44.2621 48.0061 44.2218C47.3592 44.1502 46.9444 44.2994 46.9455 44.991ZM47.3885 42.9819C47.1776 43.5807 47.5772 43.6139 48.0132 43.5887C48.4679 43.5615 49.1347 43.7924 49.055 42.9819C48.4972 42.9819 47.9604 42.9819 47.3885 42.9819Z" fill="url(#paint18_linear_1601_13571)"/>
<path id="Vector_20" d="M27.2361 36.1541C27.1505 36.4645 27.0896 36.6883 27.0216 36.9363C26.6173 36.9555 26.2294 36.9726 25.7923 36.9928C25.6634 37.522 25.5216 38.0331 25.4184 38.5502C25.2204 39.5402 25.2297 39.5412 23.902 39.4454C24.0684 38.642 24.2324 37.8436 24.4106 36.9817C23.9805 36.9817 23.6195 36.9817 23.1965 36.9817C23.1554 36.4111 23.2633 36.1047 24.0145 36.142C25.0469 36.1924 26.0876 36.1541 27.2361 36.1541Z" fill="url(#paint19_linear_1601_13571)"/>
<path id="Vector_21" d="M34.257 42.844C34.1293 43.4135 34.0414 43.8057 33.9113 44.3843C34.7504 44.2422 35.47 44.1202 36.2036 43.9962C36.1813 44.8571 36.0407 44.9861 35.1571 44.9972C34.6367 45.0033 34.1164 44.9912 33.5961 45.0022C33.0031 45.0143 32.7804 44.7694 32.8871 44.2835C32.9375 44.0537 33.0043 43.8268 33.0628 43.599C33.4484 42.0899 33.1414 42.2885 35.0809 42.2774C35.3528 42.2754 35.6376 42.2442 35.8954 42.2996C36.1298 42.349 36.4017 42.4579 36.5306 42.6161C36.6196 42.726 36.5622 43.0738 36.4532 43.1232C36.2352 43.222 35.9247 43.2391 35.6739 43.1988C35.2262 43.1242 34.795 42.9821 34.257 42.844Z" fill="url(#paint20_linear_1601_13571)"/>
<path id="Vector_22" d="M61.9438 42.3396C61.3485 43.1773 60.759 44.0079 60.1695 44.8376C60.2281 44.8789 60.2867 44.9212 60.3453 44.9626C60.0359 44.9626 59.7277 44.9626 59.2367 44.9626C59.8895 43.9243 58.9203 43.2236 58.6414 42.3839C59.4969 41.9807 59.7711 42.4958 60.0793 43.0452C60.7133 42.769 61.0239 41.8396 61.9438 42.3396Z" fill="url(#paint21_linear_1601_13571)"/>
<path id="Vector_23" d="M55.8123 36.1882C56.2225 36.1882 56.5623 36.1882 56.9866 36.1882C56.7229 37.3001 56.4697 38.3697 56.2143 39.4453C55.8099 39.4453 55.4701 39.4453 55.0623 39.4453C55.3154 38.3465 55.5592 37.289 55.8123 36.1882Z" fill="url(#paint22_linear_1601_13571)"/>
</g>
<path id="Vector_24" d="M58.9132 1.18813C65.2369 0.927041 67.4401 4.25367 68.1186 7.96639C68.9015 12.2517 67.7237 16.2336 64.8056 19.7437C62.8063 22.1489 59.9995 23.4786 56.4498 23.4655C53.5364 23.4554 50.6241 23.4876 47.7107 23.5058C44.8477 23.5229 43.3863 24.6469 43.009 27.0915C42.9094 27.7356 42.7711 28.3768 42.6246 29.0149C42.2613 30.6006 40.8163 31.6631 38.9565 31.6812C36.8845 31.7014 34.8125 31.6812 32.6691 31.6812C32.7418 31.5653 32.7652 31.4675 32.8355 31.4282C37.0544 29.0734 39.0397 25.5804 39.6772 21.4241C39.8378 20.3747 39.8589 19.3062 39.8928 18.2457C39.9467 16.5541 41.0577 15.5652 43.0371 15.5642C47.5068 15.5602 51.9801 15.4987 56.4463 15.6146C60.0124 15.7074 61.23 12.2023 60.2363 10.1186C59.7898 9.18212 58.6565 9.04805 57.5842 9.03898C55.3505 9.01983 53.1168 9.01378 50.882 9.01075C39.3491 8.99261 27.8162 8.97245 16.2833 8.96236C14.1433 8.96035 13.0792 9.94826 13.3288 11.6146C13.4507 12.4291 13.9312 12.9523 14.8676 13.1086C15.4114 13.1993 15.9727 13.2497 16.527 13.2507C21.8745 13.2678 27.2232 13.2688 32.5707 13.2779C36.2212 13.284 38.8029 15.4311 38.7033 18.5673C38.6494 20.2638 38.5252 22.0259 37.9404 23.6257C37.1482 25.7931 35.7794 27.7669 33.548 29.1651C31.2757 30.5885 28.7631 31.6076 25.9493 31.6409L0.805664 31.4867C1.23224 29.4151 1.56976 27.3869 2.13931 25.3062C2.45691 24.1489 3.67102 23.6036 5.04803 23.5945C12.4159 23.5441 19.785 23.4907 27.1529 23.409C27.6767 23.403 28.2334 23.2326 28.7139 23.03C29.9139 22.5239 30.4085 21.7144 30.0932 20.8173C29.744 19.8263 28.9025 19.4412 27.7271 19.4463C23.1378 19.4644 18.5474 19.4675 13.9582 19.4614C13.1648 19.4604 12.3597 19.4453 11.5815 19.3314C8.14777 18.8294 5.74181 16.5027 5.39492 13.5037C5.05858 10.5914 5.43476 7.793 7.39422 5.34239C9.24937 3.02282 11.7069 1.17603 15.1981 0.917969L58.9132 1.18813Z" fill="url(#paint23_linear_1601_13571)"/>
<path id="Vector_25" d="M58.7854 24.6003C61.9062 23.7485 64.6368 22.3795 66.5166 19.7585C67.2912 21.2898 68.1889 22.5065 69.8402 23.0559C70.7484 23.3584 71.7316 23.6366 72.6891 23.6598C75.7549 23.7354 78.8253 23.688 81.8946 23.686C83.5786 23.685 85.2627 23.7112 86.9455 23.6709C88.9648 23.6215 91.0649 25.0791 90.7754 27.1548C90.5762 28.5802 90.2469 30.1225 89.8918 31.5237C89.8308 31.7647 89.1722 32.0237 88.7749 32.0247C82.7067 31.9794 76.8576 31.9713 70.8914 31.9098C68.6882 31.8846 66.5822 31.3332 64.6228 30.4159C61.8558 29.1215 59.8788 27.2495 58.7854 24.6003Z" fill="url(#paint24_linear_1601_13571)"/>
<path id="Vector_26" d="M69.6033 10.8931C69.4979 8.38398 69.1897 6.4747 67.8044 4.02811C69.4451 2.6158 71.5628 1.42023 74.1774 1.38293C81.3917 1.27809 88.6084 1.33757 95.8251 1.33555C96.015 1.33555 96.206 1.37689 96.5634 1.41822C95.6939 3.60976 95.9564 6.00393 94.3954 7.97168C93.3864 9.24386 91.9578 9.81141 90.1437 9.79729C85.2005 9.75899 80.2561 9.79427 75.313 9.75395C73.2457 9.73681 71.2698 9.95355 69.6033 10.8931Z" fill="url(#paint25_linear_1601_13571)"/>
</g>
<defs>
<linearGradient id="paint0_linear_1601_13571" x1="27.1796" y1="37.7973" x2="33.7352" y2="37.7973" gradientUnits="userSpaceOnUse">
<stop offset="6.81957e-07" stop-color="#3A53A0"/>
<stop offset="1" stop-color="#3A53A0" stop-opacity="0.8"/>
</linearGradient>
<linearGradient id="paint1_linear_1601_13571" x1="61.7647" y1="37.813" x2="66.9243" y2="37.813" gradientUnits="userSpaceOnUse">
<stop offset="6.81957e-07" stop-color="#3A53A0"/>
<stop offset="1" stop-color="#3A53A0" stop-opacity="0.8"/>
</linearGradient>
<linearGradient id="paint2_linear_1601_13571" x1="38.6658" y1="37.8234" x2="43.7355" y2="37.8234" gradientUnits="userSpaceOnUse">
<stop offset="6.81957e-07" stop-color="#3A53A0"/>
<stop offset="1" stop-color="#3A53A0" stop-opacity="0.8"/>
</linearGradient>
<linearGradient id="paint3_linear_1601_13571" x1="75.9076" y1="37.8565" x2="80.9327" y2="37.8565" gradientUnits="userSpaceOnUse">
<stop offset="6.81957e-07" stop-color="#3A53A0"/>
<stop offset="1" stop-color="#3A53A0" stop-opacity="0.8"/>
</linearGradient>
<linearGradient id="paint4_linear_1601_13571" x1="9.39577" y1="37.8248" x2="13.699" y2="37.8248" gradientUnits="userSpaceOnUse">
<stop offset="6.81957e-07" stop-color="#3A53A0"/>
<stop offset="1" stop-color="#3A53A0" stop-opacity="0.8"/>
</linearGradient>
<linearGradient id="paint5_linear_1601_13571" x1="13.9332" y1="37.8151" x2="18.464" y2="37.8151" gradientUnits="userSpaceOnUse">
<stop offset="6.81957e-07" stop-color="#3A53A0"/>
<stop offset="1" stop-color="#3A53A0" stop-opacity="0.8"/>
</linearGradient>
<linearGradient id="paint6_linear_1601_13571" x1="33.9359" y1="37.8154" x2="38.4942" y2="37.8154" gradientUnits="userSpaceOnUse">
<stop offset="6.81957e-07" stop-color="#3A53A0"/>
<stop offset="1" stop-color="#3A53A0" stop-opacity="0.8"/>
</linearGradient>
<linearGradient id="paint7_linear_1601_13571" x1="49.7526" y1="37.7991" x2="54.9165" y2="37.7991" gradientUnits="userSpaceOnUse">
<stop offset="6.81957e-07" stop-color="#3A53A0"/>
<stop offset="1" stop-color="#3A53A0" stop-opacity="0.8"/>
</linearGradient>
<linearGradient id="paint8_linear_1601_13571" x1="71.5222" y1="37.9018" x2="75.8384" y2="37.9018" gradientUnits="userSpaceOnUse">
<stop offset="6.81957e-07" stop-color="#3A53A0"/>
<stop offset="1" stop-color="#3A53A0" stop-opacity="0.8"/>
</linearGradient>
<linearGradient id="paint9_linear_1601_13571" x1="81.2808" y1="37.8125" x2="85.6876" y2="37.8125" gradientUnits="userSpaceOnUse">
<stop offset="6.81957e-07" stop-color="#3A53A0"/>
<stop offset="1" stop-color="#3A53A0" stop-opacity="0.8"/>
</linearGradient>
<linearGradient id="paint10_linear_1601_13571" x1="57.17" y1="37.836" x2="61.6548" y2="37.836" gradientUnits="userSpaceOnUse">
<stop offset="6.81957e-07" stop-color="#3A53A0"/>
<stop offset="1" stop-color="#3A53A0" stop-opacity="0.8"/>
</linearGradient>
<linearGradient id="paint11_linear_1601_13571" x1="40.5672" y1="43.6581" x2="45.8705" y2="43.6581" gradientUnits="userSpaceOnUse">
<stop offset="6.81957e-07" stop-color="#3A53A0"/>
<stop offset="1" stop-color="#3A53A0" stop-opacity="0.8"/>
</linearGradient>
<linearGradient id="paint12_linear_1601_13571" x1="67.1898" y1="37.8926" x2="71.3848" y2="37.8926" gradientUnits="userSpaceOnUse">
<stop offset="6.81957e-07" stop-color="#3A53A0"/>
<stop offset="1" stop-color="#3A53A0" stop-opacity="0.8"/>
</linearGradient>
<linearGradient id="paint13_linear_1601_13571" x1="43.884" y1="37.8255" x2="48.2278" y2="37.8255" gradientUnits="userSpaceOnUse">
<stop offset="6.81957e-07" stop-color="#3A53A0"/>
<stop offset="1" stop-color="#3A53A0" stop-opacity="0.8"/>
</linearGradient>
<linearGradient id="paint14_linear_1601_13571" x1="54.0923" y1="43.5873" x2="58.1846" y2="43.5873" gradientUnits="userSpaceOnUse">
<stop offset="6.81957e-07" stop-color="#3A53A0"/>
<stop offset="1" stop-color="#3A53A0" stop-opacity="0.8"/>
</linearGradient>
<linearGradient id="paint15_linear_1601_13571" x1="18.6174" y1="37.8517" x2="22.8787" y2="37.8517" gradientUnits="userSpaceOnUse">
<stop offset="6.81957e-07" stop-color="#3A53A0"/>
<stop offset="1" stop-color="#3A53A0" stop-opacity="0.8"/>
</linearGradient>
<linearGradient id="paint16_linear_1601_13571" x1="50.2539" y1="43.6248" x2="53.88" y2="43.6248" gradientUnits="userSpaceOnUse">
<stop offset="6.81957e-07" stop-color="#3A53A0"/>
<stop offset="1" stop-color="#3A53A0" stop-opacity="0.8"/>
</linearGradient>
<linearGradient id="paint17_linear_1601_13571" x1="36.731" y1="43.6331" x2="40.3895" y2="43.6331" gradientUnits="userSpaceOnUse">
<stop offset="6.81957e-07" stop-color="#3A53A0"/>
<stop offset="1" stop-color="#3A53A0" stop-opacity="0.8"/>
</linearGradient>
<linearGradient id="paint18_linear_1601_13571" x1="45.9656" y1="43.6535" x2="49.9948" y2="43.6535" gradientUnits="userSpaceOnUse">
<stop offset="6.81957e-07" stop-color="#3A53A0"/>
<stop offset="1" stop-color="#3A53A0" stop-opacity="0.8"/>
</linearGradient>
<linearGradient id="paint19_linear_1601_13571" x1="23.1884" y1="37.8119" x2="27.2356" y2="37.8119" gradientUnits="userSpaceOnUse">
<stop offset="6.81957e-07" stop-color="#3A53A0"/>
<stop offset="1" stop-color="#3A53A0" stop-opacity="0.8"/>
</linearGradient>
<linearGradient id="paint20_linear_1601_13571" x1="32.8628" y1="43.6342" x2="36.5754" y2="43.6342" gradientUnits="userSpaceOnUse">
<stop offset="6.81957e-07" stop-color="#3A53A0"/>
<stop offset="1" stop-color="#3A53A0" stop-opacity="0.8"/>
</linearGradient>
<linearGradient id="paint21_linear_1601_13571" x1="58.6407" y1="43.5789" x2="61.9439" y2="43.5789" gradientUnits="userSpaceOnUse">
<stop offset="6.81957e-07" stop-color="#3A53A0"/>
<stop offset="1" stop-color="#3A53A0" stop-opacity="0.8"/>
</linearGradient>
<linearGradient id="paint22_linear_1601_13571" x1="55.0625" y1="37.8164" x2="56.9871" y2="37.8164" gradientUnits="userSpaceOnUse">
<stop offset="6.81957e-07" stop-color="#3A53A0"/>
<stop offset="1" stop-color="#3A53A0" stop-opacity="0.8"/>
</linearGradient>
<linearGradient id="paint23_linear_1601_13571" x1="11.5882" y1="16.3063" x2="71.9068" y2="16.3063" gradientUnits="userSpaceOnUse">
<stop stop-color="#3A53A0"/>
<stop offset="0.1123" stop-color="#3959A5"/>
<stop offset="0.3067" stop-color="#376BB2"/>
<stop offset="0.5601" stop-color="#3588C8"/>
<stop offset="0.8593" stop-color="#3DAEE3"/>
<stop offset="1" stop-color="#44C1EF"/>
</linearGradient>
<linearGradient id="paint24_linear_1601_13571" x1="88.3823" y1="30.4786" x2="58.8958" y2="19.75" gradientUnits="userSpaceOnUse">
<stop offset="0.1179" stop-color="#44C1EF"/>
<stop offset="0.8" stop-color="#3A53A0"/>
</linearGradient>
<linearGradient id="paint25_linear_1601_13571" x1="95.7956" y1="9.57791" x2="66.7744" y2="-0.981416" gradientUnits="userSpaceOnUse">
<stop offset="0.1179" stop-color="#44C1EF"/>
<stop offset="0.8" stop-color="#3A53A0"/>
</linearGradient>
</defs>
</svg>
